<?xml version="1.0" encoding="utf-8"?>
<!-- Generator: Adobe Illustrator 16.0.3, SVG Export Plug-In . SVG Version: 6.00 Build 0)  -->
<!DOCTYPE svg PUBLIC "-//W3C//DTD SVG 1.1//EN" "http://www.w3.org/Graphics/SVG/1.1/DTD/svg11.dtd">
<svg version="1.1" id="Capa_1"
	xmlns="http://www.w3.org/2000/svg"
	xmlns:xlink="http://www.w3.org/1999/xlink" x="0px" y="0px" width="252px" height="253.083px" viewBox="0 0 252 253.083" enable-background="new 0 0 252 253.083" xml:space="preserve">
	<circle fill="#FFFFFF" stroke-width="4" stroke-miterlimit="10" cx="126.239" cy="126.761" r="124.011"/>
	<g>
		<g>
			<g>
				<g>
					<g>
						<path id="SVGID_1_" fill="#F2A900" d="M41.619,126.456c0.476-2.688,1.425-6.01,3.64-9.808
						c2.055-3.954,4.586-6.959,7.276-10.282c2.846-3.006,5.221-4.903,7.119-5.853c1.74-0.791,2.69-0.316,2.53,1.582
						c0,2.531,0,5.062,0,7.91c-4.11,4.271-8.068,8.7-11.864,13.602c-3.006,3.798-5.219,5.855-6.803,6.329
						c-0.315,0-0.474,0.159-0.631,0.159C41.619,130.094,41.304,128.829,41.619,126.456 M97.777,86.118
						c3.165-1.107,5.537-0.632,6.801,1.266c1.741,2.688,3.482,5.378,5.538,8.7c-6.644,5.221-12.815,10.915-19.3,17.084
						c-5.061,4.905-9.017,7.593-12.338,8.383h-0.157h-0.16c-1.739,0.318-2.847,0-3.637-0.632l0,0
						c-0.95-0.791-1.424-1.899-1.74-3.482c-0.634-3.796-1.265-6.959-1.583-10.28c4.905-5.063,9.965-9.334,15.027-13.763
						c1.266-1.108,2.688-2.057,3.797-3.006c1.424-1.107,2.848-1.899,4.271-2.531c1.266-0.633,2.214-1.108,3.322-1.424h0.159
						C97.618,86.276,97.618,86.276,97.777,86.118C97.618,86.276,97.777,86.118,97.777,86.118 M170.227,69.825
						c6.96-0.949,12.339-0.316,17.084,1.899c5.063,2.531,7.277,6.011,6.484,11.705c-0.789,5.854-4.585,11.231-12.021,17.242
						c-7.435,5.695-15.503,9.017-24.362,9.809c-7.119,0.632-12.813-1.583-16.926-5.853c-4.271-4.747-8.067-8.701-11.706-12.497
						c8.068-5.854,15.503-10.916,22.938-15.502v0.158C158.52,72.673,164.374,70.615,170.227,69.825 M173.549,61.916
						c-9.016,1.424-17.876,3.954-28.159,9.808c-7.117,4.113-14.394,8.699-22.146,14.237c-2.529-2.689-4.901-5.063-7.116-7.435
						c-1.108-1.108-2.215-1.582-3.956-2.057c-0.315,0-0.475,0-0.79-0.158c-0.316,0-0.634-0.158-0.949-0.158
						c-1.74,0-3.956,0.475-6.485,1.265c-1.741,0.633-3.323,1.266-5.062,2.057c-2.531,1.266-5.221,2.688-8.068,4.745
						c-1.739,1.107-3.48,2.374-5.22,3.955c-5.062,4.113-9.964,8.383-15.028,13.288c-0.157-2.531-0.474-4.903-0.474-7.276
						c-0.157-2.848-1.741-3.165-4.745-1.899c-3.323,1.582-7.119,4.272-11.707,9.333c-4.587,4.746-8.383,9.966-11.706,16.293
						c-3.48,6.169-5.061,11.705-5.695,16.451c-0.631,5.062,0.317,7.434,3.006,7.118c2.532-0.315,5.854-3.796,10.915-10.44
						c4.113-5.221,8.225-10.124,12.655-15.028c0.315,3.796,0.633,7.752,1.264,12.024c0.16,1.739,0.634,3.321,1.267,4.745v0.158l0,0
						c0.791,1.582,1.581,2.531,2.846,3.322c1.108,0.632,2.689,0.791,4.588,0.791c1.582-0.317,3.322-0.791,5.061-1.583
						c2.689-1.424,5.695-3.479,9.175-6.484c2.215-1.74,4.273-3.797,6.645-6.169c7.117-7.119,14.079-13.447,21.513-19.616
						c3.007,4.586,6.329,9.649,10.127,15.344c5.692,8.542,14.552,13.288,27.364,13.129c7.594-0.158,15.187-1.74,22.779-4.746
						c7.752-3.162,15.029-7.434,21.83-12.971c13.762-11.39,19.298-21.988,19.143-31.638c-0.16-9.332-5.696-14.236-14.556-17.875
						c-4.271-1.581-8.541-2.53-13.285-2.847c-1.584-0.157-3.007-0.157-4.588-0.157C180.508,61.282,177.187,61.598,173.549,61.916"/>
					</g>
				</g>
			</g>
		</g>
		<g>
			<path fill="#001489" d="M44.471,178.065v-13.284h-3.224v-3.75h3.224v-1.156c0-4.627,3.12-6.765,6.589-6.765
			c1.507,0,3.084,0.491,4.486,1.402l-1.577,3.189c-0.911-0.596-1.752-0.911-2.628-0.911c-1.472,0-2.594,0.981-2.594,3.084v1.156
			h5.082v3.75h-5.082v13.284H44.471z"/>
			<path fill="#001489" d="M60.842,160.786v9.042c0,2.629,1.437,4.627,4.171,4.627c2.628,0,4.416-2.208,4.416-4.837v-8.833h4.241
			v17.314h-3.82l-0.281-2.349c-1.787,1.753-3.435,2.594-5.853,2.594c-4.136,0-7.15-3.119-7.15-8.482v-9.078H60.842z"/>
			<path fill="#001489" d="M90.182,178.065v-9.043c0-2.628-1.437-4.626-4.171-4.626c-2.629,0-4.417,2.208-4.417,4.837v8.833h-4.241
			v-17.314h3.82l0.28,2.348c1.752-1.717,3.505-2.593,5.678-2.593c4.065,0,7.325,3.049,7.325,8.482v9.078H90.182z"/>
			<path fill="#001489" d="M116.088,153.566v24.5h-3.996l-0.28-2.383c-1.332,2.068-3.47,2.769-5.573,2.769
			c-5.082,0-8.902-3.365-8.902-9.043c0-5.958,3.75-9.043,8.798-9.043c1.822,0,4.661,0.981,5.678,2.769v-9.568H116.088z
			 M101.612,169.408c0,3.014,2.173,5.082,4.906,5.082c2.699,0,5.013-1.962,5.013-5.082c0-3.014-2.313-5.047-5.013-5.047
			C103.785,164.361,101.612,166.289,101.612,169.408z"/>
			<path fill="#001489" d="M133.511,160.786h4.101v17.279h-4.03l-0.211-2.523c-0.981,2.033-3.68,3.014-5.607,3.049
			c-5.117,0.035-8.902-3.12-8.902-9.183c0-5.958,3.96-9.078,9.007-9.043c2.313,0,4.521,1.087,5.503,2.804L133.511,160.786z
			 M123.136,169.408c0,3.294,2.278,5.257,5.117,5.257c6.729,0,6.729-10.479,0-10.479
			C125.414,164.186,123.136,166.114,123.136,169.408z"/>
			<path fill="#001489" d="M145.256,170.95c0.28,2.138,2.139,3.68,5.152,3.68c1.577,0,3.646-0.596,4.627-1.612l2.733,2.699
			c-1.822,1.893-4.802,2.804-7.431,2.804c-5.958,0-9.498-3.68-9.498-9.218c0-5.257,3.575-9.043,9.183-9.043
			c5.783,0,9.394,3.575,8.728,10.69H145.256z M154.649,167.41c-0.28-2.243-2.033-3.364-4.486-3.364
			c-2.313,0-4.206,1.121-4.837,3.364H154.649z"/>
			<path fill="#001489" d="M166.99,175.857c0,3.33-5.047,3.33-5.047,0S166.99,172.528,166.99,175.857z"/>
			<path fill="#001489" d="M174.737,170.95c0.28,2.138,2.139,3.68,5.152,3.68c1.577,0,3.646-0.596,4.627-1.612l2.733,2.699
			c-1.822,1.893-4.802,2.804-7.431,2.804c-5.958,0-9.498-3.68-9.498-9.218c0-5.257,3.575-9.043,9.183-9.043
			c5.783,0,9.394,3.575,8.728,10.69H174.737z M184.131,167.41c-0.28-2.243-2.033-3.364-4.486-3.364
			c-2.313,0-4.206,1.121-4.837,3.364H184.131z"/>
			<path fill="#001489" d="M202.815,165.377c-1.227-1.157-2.628-1.542-4.275-1.542c-2.033,0-3.154,0.631-3.154,1.717
			c0,1.122,1.016,1.752,3.225,1.893c3.259,0.21,7.395,0.946,7.395,5.538c0,3.049-2.488,5.678-7.43,5.678
			c-2.734,0-5.468-0.456-7.991-3.084l2.103-3.049c1.227,1.367,4.03,2.383,5.958,2.418c1.612,0.035,3.12-0.806,3.12-2.068
			c0-1.191-0.981-1.682-3.436-1.822c-3.259-0.246-7.149-1.437-7.149-5.363c0-3.996,4.136-5.397,7.29-5.397
			c2.699,0,4.731,0.526,6.729,2.278L202.815,165.377z"/>
		</g>
	</g>
</svg>
